<mxfile>
    <diagram id="xWARS76tSnXCyXbDuKhF" name="Page-1">
        <mxGraphModel dx="1077" dy="492" grid="1" gridSize="10" guides="1" tooltips="1" connect="1" arrows="1" fold="1" page="1" pageScale="1" pageWidth="827" pageHeight="1169" math="0" shadow="0">
            <root>
                <mxCell id="0"/>
                <mxCell id="1" parent="0"/>
                <mxCell id="2" value="Vertical Tree Layout" style="swimlane;html=1;startSize=20;horizontal=1;childLayout=treeLayout;horizontalTree=0;resizable=0;containerType=tree;" parent="1" vertex="1">
                    <mxGeometry x="60" y="50" width="918" height="460" as="geometry"/>
                </mxCell>
                <mxCell id="3" value="com" style="whiteSpace=wrap;html=1;fillColor=#f5f5f5;strokeColor=#666666;fontColor=#333333;" parent="2" vertex="1">
                    <mxGeometry x="493.2" y="40" width="100" height="40" as="geometry"/>
                </mxCell>
                <mxCell id="4" value="libop" style="whiteSpace=wrap;html=1;fillColor=#dae8fc;strokeColor=#6c8ebf;" parent="2" vertex="1">
                    <mxGeometry x="493.2" y="130" width="100" height="40" as="geometry"/>
                </mxCell>
                <mxCell id="5" value="" style="edgeStyle=elbowEdgeStyle;elbow=vertical;html=1;rounded=0;" parent="2" source="3" target="4" edge="1">
                    <mxGeometry relative="1" as="geometry"/>
                </mxCell>
                <mxCell id="26" value="" style="edgeStyle=elbowEdgeStyle;elbow=vertical;html=1;rounded=0;" parent="2" source="4" target="27" edge="1">
                    <mxGeometry relative="1" as="geometry">
                        <mxPoint x="-2156.4" y="120" as="sourcePoint"/>
                    </mxGeometry>
                </mxCell>
                <mxCell id="27" value="bkbase" style="whiteSpace=wrap;html=1;fillColor=#d5e8d4;strokeColor=#82b366;" parent="2" vertex="1">
                    <mxGeometry x="258" y="220" width="100" height="40" as="geometry"/>
                </mxCell>
                <mxCell id="44" value="" style="edgeStyle=elbowEdgeStyle;elbow=vertical;html=1;rounded=0;" parent="2" source="27" target="45" edge="1">
                    <mxGeometry relative="1" as="geometry">
                        <mxPoint x="-1428.4" y="210" as="sourcePoint"/>
                    </mxGeometry>
                </mxCell>
                <mxCell id="45" value="IDisplay" style="whiteSpace=wrap;html=1;fillColor=#ffe6cc;strokeColor=#d79b00;" parent="2" vertex="1">
                    <mxGeometry x="90" y="310" width="100" height="40" as="geometry"/>
                </mxCell>
                <mxCell id="46" value="" style="edgeStyle=elbowEdgeStyle;elbow=vertical;html=1;rounded=0;" edge="1" target="47" source="27" parent="2">
                    <mxGeometry relative="1" as="geometry">
                        <mxPoint x="-1428.4" y="300" as="sourcePoint"/>
                    </mxGeometry>
                </mxCell>
                <mxCell id="47" value="bkmouse" style="whiteSpace=wrap;html=1;fillColor=#ffe6cc;strokeColor=#d79b00;" vertex="1" parent="2">
                    <mxGeometry x="286" y="310" width="100" height="40" as="geometry"/>
                </mxCell>
                <mxCell id="48" value="" style="edgeStyle=elbowEdgeStyle;elbow=vertical;html=1;rounded=0;" edge="1" target="49" source="27" parent="2">
                    <mxGeometry relative="1" as="geometry">
                        <mxPoint x="-1358.4" y="300" as="sourcePoint"/>
                    </mxGeometry>
                </mxCell>
                <mxCell id="49" value="bkkeypad" style="whiteSpace=wrap;html=1;fillColor=#ffe6cc;strokeColor=#d79b00;" vertex="1" parent="2">
                    <mxGeometry x="426" y="310" width="100" height="40" as="geometry"/>
                </mxCell>
                <mxCell id="52" value="" style="edgeStyle=elbowEdgeStyle;elbow=vertical;html=1;rounded=0;" edge="1" target="53" source="45" parent="2">
                    <mxGeometry relative="1" as="geometry">
                        <mxPoint x="-998.4000000000001" y="310" as="sourcePoint"/>
                    </mxGeometry>
                </mxCell>
                <mxCell id="53" value="bkgdi" style="whiteSpace=wrap;html=1;fillColor=#fff2cc;strokeColor=#d6b656;" vertex="1" parent="2">
                    <mxGeometry x="20" y="400" width="100" height="40" as="geometry"/>
                </mxCell>
                <mxCell id="54" value="" style="edgeStyle=elbowEdgeStyle;elbow=vertical;html=1;rounded=0;" edge="1" target="55" source="45" parent="2">
                    <mxGeometry relative="1" as="geometry">
                        <mxPoint x="-1208.4" y="400" as="sourcePoint"/>
                    </mxGeometry>
                </mxCell>
                <mxCell id="55" value="bkdo" style="whiteSpace=wrap;html=1;fillColor=#fff2cc;strokeColor=#d6b656;" vertex="1" parent="2">
                    <mxGeometry x="160" y="400" width="100" height="40" as="geometry"/>
                </mxCell>
                <mxCell id="56" value="" style="edgeStyle=elbowEdgeStyle;elbow=vertical;html=1;rounded=0;" edge="1" target="57" source="49" parent="2">
                    <mxGeometry relative="1" as="geometry">
                        <mxPoint x="-690.4000000000001" y="310" as="sourcePoint"/>
                    </mxGeometry>
                </mxCell>
                <mxCell id="57" value="winkeypad" style="whiteSpace=wrap;html=1;fillColor=#fff2cc;strokeColor=#d6b656;" vertex="1" parent="2">
                    <mxGeometry x="426" y="400" width="100" height="40" as="geometry"/>
                </mxCell>
                <mxCell id="58" value="" style="edgeStyle=elbowEdgeStyle;elbow=vertical;html=1;rounded=0;" edge="1" target="59" source="4" parent="2">
                    <mxGeometry relative="1" as="geometry">
                        <mxPoint x="-690.4000000000001" y="220" as="sourcePoint"/>
                    </mxGeometry>
                </mxCell>
                <mxCell id="59" value="WinApi" style="whiteSpace=wrap;html=1;fillColor=#d5e8d4;strokeColor=#82b366;" vertex="1" parent="2">
                    <mxGeometry x="532.4" y="220" width="100" height="40" as="geometry"/>
                </mxCell>
                <mxCell id="60" value="" style="edgeStyle=elbowEdgeStyle;elbow=vertical;html=1;rounded=0;" edge="1" target="61" source="4" parent="2">
                    <mxGeometry relative="1" as="geometry">
                        <mxPoint x="-315.20000000000005" y="220" as="sourcePoint"/>
                    </mxGeometry>
                </mxCell>
                <mxCell id="61" value="ImageProc" style="whiteSpace=wrap;html=1;fillColor=#d5e8d4;strokeColor=#82b366;" vertex="1" parent="2">
                    <mxGeometry x="728.4" y="220" width="100" height="40" as="geometry"/>
                </mxCell>
                <mxCell id="62" value="" style="edgeStyle=elbowEdgeStyle;elbow=vertical;html=1;rounded=0;" edge="1" target="63" source="61" parent="2">
                    <mxGeometry relative="1" as="geometry">
                        <mxPoint x="130.00000000000006" y="220" as="sourcePoint"/>
                    </mxGeometry>
                </mxCell>
                <mxCell id="63" value="Dict" style="whiteSpace=wrap;html=1;fillColor=#ffe6cc;strokeColor=#d79b00;" vertex="1" parent="2">
                    <mxGeometry x="658.4" y="310" width="100" height="40" as="geometry"/>
                </mxCell>
                <mxCell id="70" value="" style="edgeStyle=elbowEdgeStyle;elbow=vertical;html=1;rounded=0;" edge="1" target="71" source="61" parent="2">
                    <mxGeometry relative="1" as="geometry">
                        <mxPoint x="337.2000000000001" y="310" as="sourcePoint"/>
                    </mxGeometry>
                </mxCell>
                <mxCell id="71" value="ImageBase" style="whiteSpace=wrap;html=1;fillColor=#ffe6cc;strokeColor=#d79b00;" vertex="1" parent="2">
                    <mxGeometry x="798.4" y="310" width="100" height="40" as="geometry"/>
                </mxCell>
            </root>
        </mxGraphModel>
    </diagram>
</mxfile>